#!OML:ASF F:\VICON\USERDATA\INSTALL\rory3\rory3.ASF
:FULLY-SPECIFIED
:DEGREES
457
root -5.81685 17.6204 12.9833 245.104 -83.2182 -247.401
lowerback 11.5701 -0.461919 -6.19448
upperback 1.12624 -1.48128 -0.294598
thorax -5.16406 -0.625398 3.41909
lowerneck -21.9681 -5.35312 -11.5798
upperneck 28.1456 -6.72377 8.69845
head 13.9848 -3.14298 4.17783
rclavicle 1.50082e-014 -4.77083e-015
rhumerus -40.8636 -14.8074 -77.2439
rradius 32.4144
rwrist 4.62837
rhand -14.7522 9.57351
rfingers 7.12502
rthumb 11.4038 -20.0964
lclavicle 1.50082e-014 -4.77083e-015
lhumerus -25.2752 -4.7417 83.3873
lradius 38.9208
lwrist -1.22869
lhand -21.3804 27.6311
lfingers 7.12502
lthumb 5.00707 57.552
rfemur -26.337 -0.627544 13.6598
rtibia 21.8509
rfoot -9.04549 -1.59519
rtoes -4.99457
lfemur 16.6067 -1.56381 -30.5977
ltibia 3.81667e-014
lfoot -7.20859 -2.33725
ltoes -10.4248
458
root -5.93654 17.6138 12.9701 244.048 -83.1231 -246.339
lowerback 11.5864 -0.39444 -6.13565
upperback 1.12432 -1.38788 -0.330021
thorax -5.1871 -0.58041 3.33473
lowerneck -22.0996 -5.29753 -12.0518
upperneck 28.2764 -6.6287 9.2004
head 14.0993 -3.08734 4.4908
rclavicle -2.13694e-014 5.1684e-015
rhumerus -40.9053 -14.9863 -77.1943
rradius 32.2746
rwrist 4.87656
rhand -14.8556 9.59684
rfingers 7.12502
rthumb 11.304 -20.0785
lclavicle -2.13694e-014 5.1684e-015
lhumerus -25.3008 -4.71487 83.4445
lradius 38.8055
lwrist -1.25267
lhand -21.7058 27.8549
lfingers 7.12502
lthumb 4.69284 57.7829
rfemur -26.4815 -0.976784 13.8625
rtibia 22.1904
rfoot -8.28734 -0.948859
rtoes -4.53084
lfemur 17.0334 -1.59231 -30.6557
ltibia -4.13472e-014
lfoot -7.3046 -2.21061
ltoes -10.7988
459
root -6.05395 17.6056 12.9562 243.026 -82.9754 -245.374
lowerback 11.6836 -0.296331 -6.17295
upperback 1.1442 -1.27356 -0.379174
thorax -5.23239 -0.523584 3.28823
lowerneck -22.1582 -5.2592 -12.0934
upperneck 28.3191 -6.5827 9.29026
head 14.1294 -3.05953 4.54611
rclavicle -5.46658e-016 -1.66979e-014
rhumerus -40.9385 -15.2386 -77.1138
rradius 32.1391
rwrist 5.13799
rhand -14.9917 9.67879
rfingers 7.12502
rthumb 11.1728 -20.0037
lclavicle -5.46658e-016 -1.66979e-014
lhumerus -25.312 -4.37766 83.3495
lradius 38.5509
lwrist -2.02922
lhand -20.8992 26.4315
lfingers 7.12502
lthumb 5.47163 56.3409
rfemur -26.5388 -0.975866 13.8682
rtibia 22.7062
rfoot -7.3937 -0.297553
rtoes -1.87395
lfemur 17.5252 -1.59425 -30.7614
ltibia 9.54166e-015
lfoot -7.3615 -2.09337
ltoes -10.9746
460
root -6.17248 17.5992 12.9414 242.516 -82.9308 -244.908
lowerback 11.7912 -0.231134 -6.18331
upperback 1.13766 -1.19713 -0.378897
thorax -5.30688 -0.483396 3.28473
lowerneck -22.1357 -5.27854 -12.0507
upperneck 28.3576 -6.62401 9.25318
head 14.1437 -3.07944 4.51653
rclavicle 2.04251e-014 -7.95139e-016
rhumerus -40.9753 -15.2747 -77.0686
rradius 32.0156
rwrist 5.1595
rhand -14.972 9.59003
rfingers 7.12502
rthumb 11.1917 -20.0915
lclavicle 2.04251e-014 -7.95139e-016
lhumerus -25.4639 -4.19757 83.338
lradius 38.4813
lwrist -2.36777
lhand -20.5297 25.8249
lfingers 7.12502
lthumb 5.82844 55.7248
rfemur -26.5341 -0.857761 13.9338
rtibia 23.2542
rfoot -6.49046 -0.0568332
rtoes -0.717207
lfemur 18.0074 -1.69703 -30.7985
ltibia -9.54166e-014
lfoot -7.31361 -1.95683
ltoes -10.9787
461
root -6.29839 17.5904 12.9232 241.989 -82.9394 -244.408
lowerback 11.7645 -0.219993 -6.17447
upperback 1.15833 -1.17805 -0.367561
thorax -5.27197 -0.475807 3.28796
lowerneck -22.1323 -5.29722 -11.8831
upperneck 28.368 -6.65763 9.0765
head 14.137 -3.09906 4.40727
rclavicle 3.8266e-015 1.82882e-014
rhumerus -40.9675 -15.4046 -76.9881
rradius 31.8555
rwrist 5.55564
rhand -14.7758 9.53048
rfingers 7.12502
rthumb 11.381 -20.1407
lclavicle 3.8266e-015 1.82882e-014
lhumerus -25.6257 -3.93057 83.2895
lradius 38.4207
lwrist -2.45997
lhand -20.5376 25.7537
lfingers 7.12502
lthumb 5.82081 55.6537
rfemur -26.4306 -0.75114 14.1046
rtibia 23.79
rfoot -5.88353 -0.268134
rtoes -1.42004
lfemur 18.5158 -1.82072 -30.7972
ltibia 3.18055e-015
lfoot -7.2994 -1.72741
ltoes -11.6758
462
root -6.42774 17.5815 12.9026 241.612 -82.9046 -244.037
lowerback 11.6848 -0.197278 -6.28377
upperback 1.17685 -1.15332 -0.33137
thorax -5.20761 -0.463446 3.38212
lowerneck -22.142 -5.29905 -11.5604
upperneck 28.3538 -6.66077 8.72723
head 14.1036 -3.10987 4.20467
rclavicle 3.01656e-014 2.06736e-014
rhumerus -40.9501 -15.7553 -76.7488
rradius 31.5747
rwrist 6.13395
rhand -14.6024 9.65144
rfingers 7.12502
rthumb 11.5482 -20.0104
lclavicle 3.01656e-014 2.06736e-014
lhumerus -25.7796 -3.42294 83.3166
lradius 38.2133
lwrist -2.73641
lhand -20.5762 25.5174
lfingers 7.12502
lthumb 5.78356 55.4185
rfemur -26.2991 -0.953355 14.329
rtibia 24.2951
rfoot -5.42998 -0.251129
rtoes -3.37588
lfemur 19.0086 -1.93802 -30.8599
ltibia 3.49861e-014
lfoot -7.34651 -1.44756
ltoes -13.5877
463
root -6.55612 17.5763 12.8812 241.975 -82.9304 -244.402
lowerback 11.673 -0.21639 -6.35486
upperback 1.14969 -1.18358 -0.275463
thorax -5.22398 -0.474536 3.48593
lowerneck -22.153 -5.25847 -11.7251
upperneck 28.4142 -6.59059 8.86438
head 14.1358 -3.08127 4.30596
rclavicle -9.24349e-015 -5.56597e-015
rhumerus -40.9065 -15.8314 -76.5866
rradius 31.1714
rwrist 6.30607
rhand -14.5385 9.90862
rfingers 7.12502
rthumb 11.6098 -19.7498
lclavicle -9.24349e-015 -5.56597e-015
lhumerus -26.067 -2.90187 83.4269
lradius 38.0309
lwrist -2.89247
lhand -20.8349 25.5857
lfingers 7.12502
lthumb 5.53376 55.4935
rfemur -26.1448 -1.38631 14.5864
rtibia 24.7819
rfoot -4.81863 0.222175
rtoes -4.30922
lfemur 19.4909 -2.16454 -30.9086
ltibia 3.18055e-014
lfoot -7.23918 -1.2708
ltoes -15.5898
464
root -6.68397 17.5804 12.857 243.571 -83.0351 -246.001
lowerback 11.6942 -0.287726 -6.37116
upperback 1.11796 -1.28016 -0.243436
thorax -5.25801 -0.518966 3.54473
lowerneck -22.146 -5.19981 -11.9104
upperneck 28.4192 -6.48038 9.00275
head 14.1353 -3.0363 4.41768
rclavicle 2.15184e-014 -2.90226e-014
rhumerus -40.8669 -15.9177 -76.4885
rradius 30.8076
rwrist 6.3163
rhand -14.7201 10.0024
rfingers 7.12502
rthumb 11.4347 -19.6657
lclavicle 2.15184e-014 -2.90226e-014
lhumerus -26.4194 -2.6541 83.5286
lradius 37.9663
lwrist -2.61556
lhand -21.1027 25.9173
lfingers 7.12502
lthumb 5.27515 55.8317
rfemur -25.9709 -1.47595 14.6768
rtibia 25.277
rfoot -3.95531 0.395563
rtoes -3.33476
lfemur 19.9784 -2.56578 -30.9248
ltibia 9.54166e-014
lfoot -6.97025 -1.18382
ltoes -16.4133
465
root -6.81635 17.5949 12.8311 245.819 -83.0866 -248.32
lowerback 11.749 -0.36785 -6.54711
upperback 1.11477 -1.40933 -0.173341
thorax -5.27221 -0.577232 3.73939
lowerneck -22.1574 -5.13181 -11.9662
upperneck 28.4296 -6.34189 8.96188
head 14.1238 -2.98777 4.43769
rclavicle -2.98177e-016 -5.96354e-015
rhumerus -40.813 -16.5064 -76.0757
rradius 30.4572
rwrist 6.84256
rhand -14.9358 9.93521
rfingers 7.12502
rthumb 11.2267 -19.7444
lclavicle -2.98177e-016 -5.96354e-015
lhumerus -26.7577 -2.21166 83.6595
lradius 37.8314
lwrist -2.41337
lhand -21.3343 26.0509
lfingers 7.12502
lthumb 5.05152 55.9707
rfemur -25.7172 -1.12083 14.5427
rtibia 25.7447
rfoot -2.72247 0.18313
rtoes -0.794554
lfemur 20.5071 -3.01057 -31.0111
ltibia -1.90833e-014
lfoot -6.6242 -1.16063
ltoes -16.828
466
root -6.95657 17.6088 12.8084 246.432 -83.0633 -249.079
lowerback 11.8299 -0.379287 -6.63791
upperback 1.12335 -1.4411 -0.14287
thorax -5.30176 -0.589916 3.82967
lowerneck -22.2026 -5.09271 -12.0134
upperneck 28.5438 -6.27254 8.96046
head 14.1753 -2.96556 4.46272
rclavicle -1.07841e-014 -6.36111e-015
rhumerus -40.8209 -17.4308 -75.4748
rradius 30.0672
rwrist 7.80826
rhand -14.7757 9.90858
rfingers 7.12502
rthumb 11.3811 -19.7626
lclavicle -1.07841e-014 -6.36111e-015
lhumerus -27.0713 -1.32625 83.5851
lradius 37.4307
lwrist -3.04445
lhand -21.1149 25.2816
lfingers 7.12502
lthumb 5.26341 55.1962
rfemur -25.386 -0.780043 14.4631
rtibia 26.1329
rfoot -1.15554 0.366668
rtoes 4.65862
lfemur 21.1402 -3.23693 -31.1032
ltibia -3.18055e-015
lfoot -6.27649 -1.15185
ltoes -17.8457
467
root -7.09894 17.627 12.7903 246.123 -83.1365 -248.774
lowerback 11.7705 -0.375491 -6.43844
upperback 1.07842 -1.4065 -0.16225
thorax -5.32521 -0.574876 3.69035
lowerneck -22.1471 -5.10199 -11.9023
upperneck 28.6002 -6.30425 8.84004
head 14.1825 -2.98661 4.38887
rclavicle 1.6201e-014 -1.59028e-015
rhumerus -40.9156 -17.6518 -75.33
rradius 29.7571
rwrist 7.84171
rhand -14.7817 9.87227
rfingers 7.12502
rthumb 11.3753 -19.7992
lclavicle 1.6201e-014 -1.59028e-015
lhumerus -27.405 -0.488211 83.3826
lradius 36.9122
lwrist -3.96183
lhand -20.1384 24.1841
lfingers 7.12502
lthumb 6.20624 54.0732
rfemur -25.1803 -0.717515 14.5996
rtibia 26.4197
rfoot 0.145498 0.952007
rtoes 10.3268
lfemur 21.626 -3.4141 -31.0392
ltibia 1.90833e-014
lfoot -5.85465 -1.21783
ltoes -18.3434
